<mxfile host="app.diagrams.net" modified="2023-09-22T14:19:00.438Z" agent="Mozilla/5.0 (Macintosh; Intel Mac OS X 10_15_7) AppleWebKit/537.36 (KHTML, like Gecko) Chrome/116.0.0.0 Safari/537.36" etag="CA3R4oWMENBb3_7bywkt" version="21.7.5" type="github">
  <diagram name="Page-1" id="D2gzpz6l3h0VEidp_TPc">
    <mxGraphModel dx="1245" dy="584" grid="1" gridSize="10" guides="1" tooltips="1" connect="1" arrows="1" fold="1" page="1" pageScale="1" pageWidth="850" pageHeight="1100" math="0" shadow="0">
      <root>
        <object label="" object="" id="0">
          <mxCell />
        </object>
        <mxCell id="1" parent="0" />
        <mxCell id="498Rqjy5Y9NQw4nuuCTE-1" value="" style="endArrow=none;html=1;rounded=0;" edge="1" parent="1">
          <mxGeometry width="50" height="50" relative="1" as="geometry">
            <mxPoint x="80" y="530" as="sourcePoint" />
            <mxPoint x="150" y="20" as="targetPoint" />
            <Array as="points">
              <mxPoint x="80" y="300" />
              <mxPoint x="60" y="130" />
            </Array>
          </mxGeometry>
        </mxCell>
        <mxCell id="498Rqjy5Y9NQw4nuuCTE-2" value="" style="endArrow=none;html=1;rounded=0;" edge="1" parent="1">
          <mxGeometry width="50" height="50" relative="1" as="geometry">
            <mxPoint x="220" y="500" as="sourcePoint" />
            <mxPoint x="220" y="100" as="targetPoint" />
            <Array as="points">
              <mxPoint x="170" y="180" />
            </Array>
          </mxGeometry>
        </mxCell>
        <mxCell id="498Rqjy5Y9NQw4nuuCTE-4" value="Actor" style="shape=umlActor;verticalLabelPosition=bottom;verticalAlign=top;html=1;outlineConnect=0;" vertex="1" parent="1">
          <mxGeometry x="160" y="480" width="20" height="40" as="geometry" />
        </mxCell>
        <mxCell id="498Rqjy5Y9NQw4nuuCTE-6" value="" style="shape=singleArrow;direction=north;whiteSpace=wrap;html=1;arrowWidth=0.2;arrowSize=0.35;" vertex="1" parent="1">
          <mxGeometry x="125" y="400" width="15" height="20" as="geometry" />
        </mxCell>
        <mxCell id="498Rqjy5Y9NQw4nuuCTE-7" value="" style="verticalLabelPosition=bottom;verticalAlign=top;html=1;shape=mxgraph.basic.polygon;polyCoords=[[0.25,0],[0.75,0],[1,0.25],[1,0.75],[0.75,1],[0.25,1],[0,0.75],[0,0.25]];polyline=0;" vertex="1" parent="1">
          <mxGeometry x="95" y="100" width="30" height="30" as="geometry" />
        </mxCell>
        <mxCell id="498Rqjy5Y9NQw4nuuCTE-8" value="" style="rounded=1;whiteSpace=wrap;html=1;" vertex="1" parent="1">
          <mxGeometry x="-60" y="20" width="120" height="60" as="geometry" />
        </mxCell>
      </root>
    </mxGraphModel>
  </diagram>
</mxfile>
